<?xml version="1.0" encoding="UTF-8"?>
<!DOCTYPE svg PUBLIC "-//W3C//DTD SVG 1.1//EN" "http://www.w3.org/Graphics/SVG/1.1/DTD/svg11.dtd">
<!-- Creator: CorelDRAW 2020 (64-Bit) -->
<svg xmlns="http://www.w3.org/2000/svg" xml:space="preserve" width="300px" height="300px" version="1.1" style="shape-rendering:geometricPrecision; text-rendering:geometricPrecision; image-rendering:optimizeQuality; fill-rule:evenodd; clip-rule:evenodd"
viewBox="0 0 56.27 56.27"
 xmlns:xlink="http://www.w3.org/1999/xlink"
 xmlns:xodm="http://www.corel.com/coreldraw/odm/2003">
 <defs>
  <style type="text/css">
   <![CDATA[
    .fil0 {fill:none}
    .fil1 {fill:black;fill-rule:nonzero}
   ]]>
  </style>
 </defs>
 <g id="Layer_x0020_1">
  <metadata id="CorelCorpID_0Corel-Layer"/>
  <rect class="fil0" width="56.27" height="56.27"/>
  <g>
   <path class="fil1" d="M30.46 48.65l0 3.27c0,0.78 0.01,0.76 0.78,0.78 0.33,0.01 0.38,-0.11 0.38,-0.4 -0.01,-2.3 -0.01,-4.59 -0.01,-6.89 0,-0.82 0,-0.8 -0.82,-0.81 -0.25,-0.01 -0.33,0.05 -0.33,0.32 0.01,1.24 0,2.48 0,3.73zm1.15 -16.86l0 -3.27c0,-0.8 0,-0.78 -0.79,-0.8 -0.3,-0.01 -0.36,0.09 -0.36,0.37 0.01,2.31 0,4.62 0,6.93 0,0.81 0,0.8 0.83,0.8 0.27,0 0.33,-0.08 0.33,-0.34 -0.01,-1.23 -0.01,-2.46 -0.01,-3.69zm-5.7 16.84l0 3.28c0,0.79 0,0.78 0.81,0.79 0.28,0 0.34,-0.08 0.34,-0.35 -0.01,-2.31 0,-4.62 0,-6.93 0,-0.83 0,-0.82 -0.84,-0.82 -0.24,0 -0.32,0.06 -0.31,0.31 0.01,1.24 0,2.48 0,3.72zm-1.52 0.01l0 3.28c0,0.78 0,0.76 0.78,0.78 0.33,0.01 0.37,-0.11 0.37,-0.4 -0.01,-2.29 -0.01,-4.59 -0.01,-6.89 0,-0.82 0,-0.8 -0.81,-0.82 -0.29,0 -0.34,0.11 -0.33,0.36 0.01,1.23 0,2.46 0,3.69zm4.55 0l0 3.28c0,0.78 0,0.76 0.78,0.78 0.3,0.01 0.4,-0.06 0.39,-0.38 -0.01,-2.3 0,-4.6 0,-6.91 0,-0.83 0,-0.82 -0.84,-0.82 -0.25,0 -0.34,0.05 -0.34,0.32 0.02,1.25 0.01,2.49 0.01,3.73zm-0.36 0l0 -3.28c0,-0.77 0,-0.76 -0.78,-0.78 -0.3,0 -0.39,0.07 -0.39,0.39 0.01,2.29 0.01,4.58 0.01,6.87 0,0.87 0,0.86 0.88,0.86 0.23,0 0.29,-0.07 0.29,-0.3 -0.01,-1.25 -0.01,-2.51 -0.01,-3.76zm14.28 -15.29c0.03,0.09 0.01,0.2 0.09,0.27 0.11,0.67 0.07,1.33 -0.08,1.99 -0.07,0.05 -0.07,0.12 -0.07,0.2 -0.12,0.23 -0.24,0.47 -0.35,0.7l-0.12 0.16c-0.87,1.09 -1.98,1.57 -3.4,1.56 -7.53,-0.03 -15.06,-0.02 -22.59,-0.01 -0.32,0 -0.65,0.01 -0.97,0.04 -3.66,0.36 -6.43,3.29 -6.55,6.95 -0.06,2.12 0.67,3.93 2.19,5.42 0.07,0.06 0.14,0.13 0.21,0.19 1.19,1.09 2.59,1.73 4.2,1.82 2.1,0.13 4.2,0.03 6.3,0.06 0.22,0 0.25,-0.09 0.25,-0.27 -0.01,-0.79 -0.02,-1.58 0.01,-2.37 0,-0.29 -0.1,-0.34 -0.36,-0.34 -1.36,0.01 -2.72,0.01 -4.08,0.01 -0.24,-0.01 -0.49,-0.01 -0.73,-0.05 -1.16,-0.18 -2.02,-0.82 -2.67,-1.78 -0.04,-0.07 -0.08,-0.14 -0.12,-0.22 -0.34,-0.78 -0.5,-1.59 -0.33,-2.44 0.38,-1.82 1.89,-3.06 3.76,-3.06 7.53,0 15.06,0 22.59,0 0.58,0.01 1.14,-0.04 1.7,-0.17 3.8,-0.89 6.17,-4.45 5.54,-8.33 -0.53,-3.24 -3.46,-5.85 -6.73,-5.94 -2.09,-0.05 -4.18,-0.01 -6.28,-0.02 -0.2,0 -0.25,0.07 -0.25,0.26 0.01,0.8 0.02,1.61 0,2.41 0,0.25 0.08,0.3 0.32,0.3 1.58,-0.01 3.16,0 4.74,0 0.33,0 0.65,0.03 0.97,0.1 1.08,0.23 1.87,0.87 2.48,1.77 0,0.07 0.02,0.12 0.08,0.15 0.08,0.21 0.17,0.43 0.25,0.64zm-12.75 -4.74c0,-0.92 0,-0.92 -0.92,-0.89 -0.2,0.01 -0.26,0.07 -0.25,0.26 0,2.54 0,5.07 0,7.6 -0.02,0.33 0.5,0.24 0.91,0.24 0.18,0.02 0.26,-0.05 0.26,-0.25l0 -6.96zm-2.69 6.99c0,0.08 -0.02,0.21 0.14,0.2 0.11,0.01 0.16,0.02 0.27,0.02 0.09,0 0.18,0 0.27,0 0.57,-0.01 0.48,0.06 0.48,-0.48 0,-2.25 0,-4.49 0,-6.73 0,-0.93 0,-0.93 -0.91,-0.88 -0.02,0 -0.05,0 -0.07,0 -0.14,-0.01 -0.19,0.05 -0.18,0.18l0 7.69zm9.9 0.2c0.2,0 0.41,0 0.61,0 0.1,0 0.2,0 0.29,0 0.35,0 0.7,0.02 1.05,0.01 0.73,0 1.3,-0.56 1.32,-1.29 0.02,-0.74 -0.52,-1.36 -1.25,-1.4 -0.25,-0.02 -0.51,0 -0.77,0l-0.3 0c-0.25,0 -0.49,0 -0.74,0 -0.08,0 -0.16,0 -0.24,0 -1.01,0 -2.03,0 -3.05,-0.01 -0.18,-0.01 -0.22,0.06 -0.21,0.22 0,0.75 0,1.51 0,2.26 -0.01,0.15 0.03,0.23 0.21,0.23 0.94,-0.01 1.89,-0.02 2.84,-0.02 0.08,0 0.16,0 0.24,0zm8.01 15.79c-0.04,-0.07 -0.11,-0.12 -0.19,-0.15 -1.34,-1.12 -2.92,-1.66 -4.64,-1.7 -2.07,-0.06 -4.14,-0.01 -6.2,-0.02 -0.22,0 -0.28,0.06 -0.28,0.27 0.02,0.78 0.03,1.56 0,2.33 -0.01,0.32 0.09,0.38 0.39,0.38 3.04,-0.01 6.08,-0.01 9.13,-0.01 0.93,0 1.87,0.02 2.81,-0.02 -0.33,-0.44 -0.64,-0.79 -1.02,-1.08zm-19.41 -21.07l0.01 0.63c0,0.07 0,0.15 0,0.22 -0.01,1.23 -0.01,2.46 -0.02,3.69 0,0.72 0,0.72 0.71,0.72 0.06,0 0.15,0 0.21,-0.01 0.21,-0.04 0.23,0 0.23,-0.21 -0.01,-0.9 -0.01,-1.81 -0.02,-2.71 0,-0.24 0,-0.48 0,-0.71 0,-0.37 0,-0.74 0,-1.11 0,-0.1 0,-0.2 0,-0.3 0.01,-0.71 0.01,-1.43 0.02,-2.15 0,-0.9 0,-0.9 -0.91,-0.86 -0.17,0.01 -0.24,0.05 -0.24,0.24 0.01,0.76 0.01,1.53 0.02,2.29 0,0.09 -0.01,0.18 -0.01,0.27zm-8.98 0.14c1,0 1.99,0 2.99,0 0.12,0 0.24,0 0.37,0 0.46,0.01 0.93,0 1.39,0.03 0.24,0.01 0.29,-0.09 0.28,-0.3 -0.01,-0.78 -0.01,-1.56 0,-2.34 0.01,-0.25 -0.06,-0.33 -0.32,-0.33 -3.81,0.01 -7.62,0.01 -11.43,0.01 -0.08,0 -0.19,-0.05 -0.28,0.1 1.72,2.04 3.93,2.91 6.57,2.84 0.14,0 0.29,0 0.43,-0.01zm7.45 4.3c0,0.91 0,0.91 0.92,0.85 0.15,-0.01 0.23,-0.05 0.23,-0.22 -0.01,-1.45 -0.02,-2.9 -0.02,-4.35 0,-0.07 0,-0.15 0,-0.22 0.01,-0.2 -0.01,-0.4 -0.01,-0.61 0.01,-0.08 0.01,-0.15 0.01,-0.22 0.01,-0.75 0,-1.49 0.02,-2.23 0.01,-0.33 -0.22,-0.31 -0.46,-0.3 -0.49,0.02 -0.66,-0.09 -0.67,0.29l-0.02 7.01zm-7 12.36c1.45,0.02 2.9,0.01 4.35,0.01 0.15,0 0.23,-0.04 0.23,-0.21 -0.01,-0.77 -0.01,-1.53 0,-2.3 0,-0.17 -0.06,-0.22 -0.22,-0.22 -1.46,0.01 -2.93,0.02 -4.39,0.02 -1.72,-0.02 -1.8,2.67 0.03,2.7zm-7.9 5.23c-0.07,-0.06 -0.14,-0.13 -0.21,-0.2 -1.3,-1.33 -2.21,-2.88 -2.63,-4.7 -0.04,-0.15 -0.07,-0.29 -0.11,-0.44 0.01,-0.14 -0.02,-0.28 -0.07,-0.42 -0.1,-1.06 -0.11,-2.13 0.1,-3.18 0.55,-2.67 1.98,-4.74 4.23,-6.26 0.12,-0.08 0.25,-0.17 0.37,-0.25 0.41,-0.2 0.81,-0.39 1.22,-0.58 0.2,-0.08 0.4,-0.16 0.6,-0.25 0.84,-0.21 1.68,-0.42 2.55,-0.45 1.7,-0.11 4.2,-0.03 6.1,0 0.26,0.03 0.34,-0.06 0.33,-0.32 -0.01,-0.71 -0.01,-1.42 0,-2.13 0,-0.17 -0.01,-0.27 -0.23,-0.27 -1.81,0.01 -3.62,0.01 -5.43,0.02 -0.07,0 -0.14,0 -0.22,0 -0.25,-0.01 -0.49,-0.02 -0.74,-0.03 -0.08,-0.01 -0.15,-0.02 -0.23,-0.03 -0.53,-0.06 -1.06,-0.14 -1.57,-0.26 -1.25,-0.29 -2.38,-0.83 -3.44,-1.52 -0.1,-0.06 -0.14,-0.11 -0.21,-0.15 -0.22,-0.18 -0.43,-0.36 -0.64,-0.53 -0.09,-0.08 -0.18,-0.16 -0.27,-0.24 -0.08,-0.08 -0.15,-0.17 -0.23,-0.25 -1.17,-1.24 -1.95,-2.68 -2.25,-4.36 -0.07,-0.45 -0.08,-0.45 0.36,-0.45 8.47,0 16.94,0 25.41,0 2.67,0 5.33,-0.02 7.99,0.01 2.75,0.04 5.07,1.09 6.96,3.1 0.98,1.03 1.65,2.26 2.13,3.59 0.02,0.07 0.04,0.14 0.06,0.21 0.05,0.17 0.09,0.34 0.13,0.51 0.01,0.06 0.03,0.13 0.05,0.2 0.18,1.02 0.24,2.04 0.14,3.08 -0.41,3.93 -3.3,7.29 -7.14,8.28 -1.12,0.3 -2.27,0.32 -3.41,0.33 -0.11,-0.05 -4.41,-0.01 -4.93,-0.01 -0.22,0 -0.24,0.1 -0.23,0.27 0,0.71 0.01,1.42 -0.01,2.13 -0.01,0.27 0.08,0.33 0.33,0.32 1.89,-0.01 3.77,-0.01 5.65,0 0.5,0 1,0.04 1.5,0.06 0.14,0.01 0.28,0.03 0.42,0.04 0.06,0.02 0.13,0.05 0.2,0.06 1.29,0.23 2.5,0.69 3.6,1.4 0.41,0.26 0.8,0.56 1.19,0.84 0.03,0.07 0.08,0.12 0.15,0.15 1.1,1.05 1.95,2.26 2.41,3.72 0.14,0.42 0.23,0.85 0.3,1.29 0.02,0.1 0.05,0.21 -0.11,0.22 -0.1,0.01 -0.2,0.01 -0.3,0.01 -1.18,0 -2.37,-0.01 -3.55,-0.01 -1.36,0 -2.73,0.01 -4.09,0.01 -0.1,0 -0.2,0 -0.3,-0.01 -2.05,0 -4.09,0.01 -6.13,-0.01 -6.87,-0.04 -13.73,0.1 -20.59,-0.07 -0.17,-0.01 -0.28,-0.03 -0.42,-0.07 -1.25,-0.27 -2.42,-0.7 -3.49,-1.4 -0.46,-0.3 -0.88,-0.65 -1.3,-1z"/>
  </g>
  <path class="fil1" d="M44.9 21.04c0.12,0 0.22,-0.01 0.28,-0.14 0.51,-1.01 1.03,-2.02 1.54,-3.03 0.05,-0.1 0.06,-0.17 -0.05,-0.22 -0.85,-0.45 -1.96,-1.01 -2.77,-1.52 -0.2,-0.13 -0.34,-0.12 -0.54,0.01 -2.29,1.52 -4.6,3.02 -6.9,4.53 -0.06,0.04 -0.16,0.05 -0.14,0.17 2.86,0.08 5.72,0.12 8.58,0.2zm4.62 -4.38c0.23,0.14 0.25,0.24 0.14,0.48 -0.98,1.94 -1.94,3.87 -2.91,5.82 -0.08,0.16 -0.16,0.27 -0.38,0.26 -5.57,-0.19 -11.15,-0.29 -16.72,-0.44 0.12,-0.1 0.18,-0.15 0.25,-0.19 3.1,-2.12 6.19,-4.23 9.29,-6.35 1.21,-0.83 2.42,-1.67 3.64,-2.51 0.09,-0.05 0.11,-0.07 0.21,-0.13 0.5,-0.47 0.87,-0.31 1.35,0.01 1.52,0.99 3.55,2.14 5.13,3.05z"/>
  <path class="fil1" d="M9.56 17.63c-0.15,0.07 -0.13,0.15 -0.07,0.27 0.5,0.98 1,1.96 1.49,2.94 0.07,0.14 0.15,0.21 0.32,0.2 1.25,-0.04 2.5,-0.06 3.75,-0.09 0.15,-0.02 0.23,-0.01 0.39,-0.02 1.49,0.01 2.95,-0.04 4.46,-0.1 -0.03,-0.05 -0.03,-0.07 -0.05,-0.08 -2.37,-1.56 -4.74,-3.11 -7.11,-4.66 -0.12,-0.08 -0.22,-0.09 -0.35,-0.01 -0.9,0.53 -1.91,1.08 -2.83,1.55zm2.55 -4.2c0.32,-0.21 0.57,-0.23 0.84,0.04 2.49,2.41 10.02,6.85 13.31,9.1 0.08,0.05 0.19,0.09 0.23,0.21 -2.97,0.08 -5.91,0.16 -8.86,0.24 -0.14,-0.02 -0.5,0 -0.67,0.01 -2.35,0.06 -4.69,0.12 -7.03,0.19 -0.28,0.01 -0.41,-0.09 -0.52,-0.32 -0.95,-1.94 -1.93,-3.86 -2.89,-5.79 -0.1,-0.22 -0.08,-0.31 0.13,-0.43 1.76,-1.02 3.74,-2.17 5.46,-3.25z"/>
  <path class="fil1" d="M15.68 11.07c-0.03,0.14 -0.14,0.27 0,0.41 2.13,1.53 4.27,3.05 6.4,4.58 0.22,0.16 0.45,0.32 0.68,0.48 0.07,-0.16 -0.02,-0.26 -0.06,-0.36 -0.86,-2.37 -1.75,-4.72 -2.56,-7.1 -0.23,-0.67 -0.43,-0.87 -1.24,-0.91 -0.8,-0.1 -1.61,-0.24 -2.41,-0.37 -0.15,-0.02 -0.26,-0.02 -0.29,0.18 -0.17,1.03 -0.34,2.06 -0.52,3.09zm5.22 -5.12c0.09,0.01 0.19,0.02 0.29,0.03 0.3,-0.02 0.34,0.22 0.41,0.43 1.74,5.08 3.48,10.16 5.22,15.24 0.04,0.11 0.13,0.22 0.06,0.37 -0.08,-0.05 -0.16,-0.1 -0.23,-0.15 -2.92,-2.05 -5.83,-4.11 -8.74,-6.17 -1.28,-0.9 -2.55,-1.79 -3.83,-2.68 -0.02,-0.03 -0.21,-0.18 -0.25,-0.2 -0.71,-0.4 -0.74,-0.78 -0.6,-1.46 0.4,-1.91 0.72,-3.83 1.06,-5.74 0.05,-0.31 0.17,-0.35 0.45,-0.32 2.05,0.23 4.11,0.43 6.16,0.65z"/>
  <path class="fil1" d="M37.58 8.13c-0.1,0.02 -0.19,0.03 -0.28,0.04 -0.17,0.01 -0.33,0.04 -0.49,0.04 -0.31,0.01 -0.47,0.13 -0.59,0.45 -0.9,2.51 -1.82,5.01 -2.73,7.52 -0.04,0.1 -0.12,0.2 -0.06,0.36 0.35,-0.24 0.69,-0.48 1.02,-0.72 2.02,-1.45 4.04,-2.89 6.06,-4.34 0.14,-0.14 0.04,-0.27 0,-0.41 -0.02,-0.16 -0.04,-0.32 -0.07,-0.48 -0.14,-0.85 -0.28,-1.69 -0.43,-2.54 -0.03,-0.12 -0.01,-0.29 -0.24,-0.25 -0.73,0.11 -1.46,0.22 -2.19,0.33zm-2.57 -2.15c0.09,-0.01 0.19,-0.02 0.29,-0.03 1.81,-0.19 3.62,-0.37 5.43,-0.56 0.13,-0.01 0.27,-0.03 0.41,-0.04 0.7,-0.06 0.7,-0.06 0.83,0.64 0.36,2.01 0.72,4.02 1.09,6.02 0.04,0.22 0,0.34 -0.19,0.46 -0.33,0.2 -0.72,0.5 -1.05,0.74 -4.07,2.87 -8.14,5.75 -12.22,8.62 -0.09,0.07 -0.19,0.13 -0.32,0.22 0.01,-0.1 0.01,-0.14 0.02,-0.17 1.78,-5.21 3.57,-10.43 5.35,-15.64 0.07,-0.19 0.19,-0.25 0.36,-0.26z"/>
  <path class="fil1" d="M28.06 14.67c0.13,-0.03 0.11,-0.12 0.13,-0.18 0.85,-2.65 1.69,-5.3 2.54,-7.95 0.06,-0.2 0.02,-0.32 -0.13,-0.45 -0.78,-0.72 -1.55,-1.45 -2.31,-2.18 -0.15,-0.14 -0.23,-0.15 -0.38,0 -0.71,0.72 -1.43,1.44 -2.15,2.14 -0.18,0.17 -0.21,0.32 -0.14,0.55 0.57,1.85 1.12,3.7 1.68,5.55 0.26,0.84 0.51,1.68 0.76,2.52zm0.03 6.94c-0.34,-1.05 -0.65,-2 -0.96,-2.96 -1.39,-4.29 -2.77,-8.58 -4.17,-12.87 -0.07,-0.22 -0.06,-0.36 0.13,-0.54 1.6,-1.47 3.19,-2.95 4.78,-4.43 0.16,-0.16 0.26,-0.19 0.44,-0.02 1.6,1.5 3.2,2.98 4.8,4.46 0.16,0.15 0.21,0.27 0.14,0.48 -1.68,5.18 -3.36,10.37 -5.04,15.55 -0.02,0.08 -0.05,0.15 -0.12,0.33z"/>
 </g>
</svg>
